<svg width="52" height="52" viewBox="0 0 52 52" fill="none" xmlns="http://www.w3.org/2000/svg">
<g filter="url(#filter0_d_279_7064)">
<path d="M42 27.5C42.8284 27.5 43.5 26.8284 43.5 26C43.5 25.1716 42.8284 24.5 42 24.5V27.5ZM8.93934 24.9393C8.35355 25.5251 8.35355 26.4749 8.93934 27.0607L18.4853 36.6066C19.0711 37.1924 20.0208 37.1924 20.6066 36.6066C21.1924 36.0208 21.1924 35.0711 20.6066 34.4853L12.1213 26L20.6066 17.5147C21.1924 16.9289 21.1924 15.9792 20.6066 15.3934C20.0208 14.8076 19.0711 14.8076 18.4853 15.3934L8.93934 24.9393ZM42 24.5L10 24.5V27.5L42 27.5V24.5Z" fill="white"/>
</g>
<defs>
<filter id="filter0_d_279_7064" x="8" y="14.9541" width="36" height="24.5918" filterUnits="userSpaceOnUse" color-interpolation-filters="sRGB">
<feFlood flood-opacity="0" result="BackgroundImageFix"/>
<feColorMatrix in="SourceAlpha" type="matrix" values="0 0 0 0 0 0 0 0 0 0 0 0 0 0 0 0 0 0 127 0" result="hardAlpha"/>
<feOffset dy="2"/>
<feGaussianBlur stdDeviation="0.25"/>
<feComposite in2="hardAlpha" operator="out"/>
<feColorMatrix type="matrix" values="0 0 0 0 0 0 0 0 0 0 0 0 0 0 0 0 0 0 0.25 0"/>
<feBlend mode="normal" in2="BackgroundImageFix" result="effect1_dropShadow_279_7064"/>
<feBlend mode="normal" in="SourceGraphic" in2="effect1_dropShadow_279_7064" result="shape"/>
</filter>
</defs>
</svg>
