<svg width="77" height="77" viewBox="0 0 77 77" fill="none" xmlns="http://www.w3.org/2000/svg">
<path d="M24.8048 59.5561H18.9479C13.1052 59.5561 8.35352 54.328 8.35352 47.9004C8.35352 43.1629 11.8298 39.6548 16.2096 38.7945C18.6406 38.3173 21.0374 36.5132 21.4977 34.079C23.1788 25.1881 29.4021 18.3027 37.4663 18.3027C43.521 18.3027 49.274 21.7944 51.7974 28.7778C52.5285 30.801 54.5534 32.1794 56.6948 32.3861C63.13 33.007 68.651 38.1837 68.6468 44.6179C68.6468 52.8527 62.5591 59.5561 55.0688 59.5561H49.2118" stroke="#4A4B4D" stroke-width="2.5" stroke-linecap="round"/>
<path d="M36.9126 64.3164L36.9129 38.9297M36.9129 38.9297L27.3926 48.0168M36.9129 38.9297L46.4326 48.0168" stroke="#4A4B4D" stroke-width="2.5" stroke-linecap="round"/>
</svg>
