<svg width="141" height="30" viewBox="0 0 141 30" fill="none" xmlns="http://www.w3.org/2000/svg">
<path d="M0.169063 29.5V1.18H6.40906V11.74H18.5291V1.18H24.7691V29.5H18.5291V17.26H6.40906V29.5H0.169063ZM29.1606 19.78C29.1606 13.62 33.8806 9.58 40.1206 9.58C43.8806 9.58 49.0806 11.9 49.0806 19.98V21.66H35.1606C35.6406 23.86 37.2406 25.42 39.6806 25.42C41.7206 25.42 42.9606 24.38 43.9606 23.06L48.1606 26.14C46.2806 28.58 43.0006 29.98 39.9606 29.98C34.1606 29.98 29.1606 26.14 29.1606 19.78ZM35.1606 17.58H43.0806C43.0806 15.38 41.4406 13.9 39.3606 13.9C37.1206 13.9 35.3606 15.34 35.1606 17.58ZM52.7294 29.5V10.06H58.7294V13.18H58.8094C60.0894 10.82 61.7694 9.58 64.4494 9.58C65.0894 9.58 65.8494 9.62 66.4094 9.78V15.26C65.5294 15.02 64.7694 14.86 63.8494 14.86C59.5694 14.86 58.7294 17.14 58.7294 21.14V29.5H52.7294ZM78.3953 9.58C84.3953 9.58 89.1953 13.58 89.1953 19.78C89.1953 25.94 84.3553 29.98 78.3953 29.98C72.3953 29.98 67.5953 26.02 67.5953 19.78C67.5953 13.58 72.3953 9.58 78.3953 9.58ZM73.5953 19.78C73.5953 22.7 75.4353 24.7 78.3953 24.7C81.3153 24.7 83.1953 22.78 83.1953 19.78C83.1953 16.74 81.3153 14.86 78.3553 14.86C75.4353 14.86 73.5953 16.9 73.5953 19.78ZM93.7294 29.5V1.18H112.729V6.94H99.9694V12.7H111.769V18.46H99.9694V29.5H93.7294ZM119.52 0.46C121.48 0.46 123 2.06 123 3.94C123 5.82 121.48 7.42 119.52 7.42C117.6 7.42 116.04 5.82 116.04 3.94C116.04 1.94 117.64 0.46 119.52 0.46ZM122.52 10.06V29.5H116.52V10.06H122.52ZM128.791 14.86H124.951V10.06H128.791V4.3H134.791V10.06H140.071V14.86H134.791V21.7C134.791 24.1 135.631 24.94 137.631 24.94C138.791 24.94 139.751 24.7 140.071 24.38V29.38C138.671 29.86 137.231 29.98 135.871 29.98C131.191 29.98 128.791 27.74 128.791 24.26V14.86Z" fill="#DCDDDE"/>
</svg>
