<svg width="18" height="21" viewBox="0 0 18 21" fill="none" xmlns="http://www.w3.org/2000/svg">
<path d="M15 6H15.5C16.0523 6 16.5 5.55228 16.5 5V4.5C16.5 3.94772 16.0523 3.5 15.5 3.5H12.5M15 6V18C15 19.1046 14.1046 20 13 20H5C3.89543 20 3 19.1046 3 18V6M15 6H3M12.5 3.5V3C12.5 1.89543 11.6046 1 10.5 1H7.5C6.39543 1 5.5 1.89543 5.5 3V3.5M12.5 3.5H5.5M3 6H2.5C1.94772 6 1.5 5.55228 1.5 5V4.5C1.5 3.94772 1.94772 3.5 2.5 3.5H5.5M7 9.5V16.5M11 9.5V16.5" stroke="#DE3434" stroke-width="1.25" stroke-linecap="round"/>
</svg>
